Coordinates
version=1
nRows=25
nColumns=28
inDegrees=yes

Units are S.I. units (second, meters, Newtons, ...)
Angles are in degrees.

endheader
time	pelvis_tilt	pelvis_list	pelvis_rotation	pelvis_tx	pelvis_ty	pelvis_tz	hip_flexion_r	hip_adduction_r	hip_rotation_r	knee_angle_r	ankle_angle_r	subtalar_angle_r	mtp_angle_r	hip_flexion_l	hip_adduction_l	hip_rotation_l	knee_angle_l	socket_flexion	socket_adduction	socket_rotation	socket_tx	socket_ty	socket_tz	foot_flex	lumbar_extension	lumbar_bending	lumbar_rotation
      0.31666667	     -0.80869410	      0.86149536	     -0.49851259	     -0.42922001	      1.02907008	      0.25916054	     18.69086747	     -2.62429476	     -6.51685836	    -61.84764654	      6.35650942	    -18.29554998	     -1.40794337	      4.01557068	      2.69327867	      9.87341640	     -6.56834987	      0.00000000	      0.00000000	      0.00000000	      0.00000000	      0.00000000	      0.00000000	     -0.37758010	     -9.52197224	     -3.71456291	     -1.70620690
      0.32083333	     -0.78291515	      0.85710154	     -0.42917163	     -0.42444588	      1.02941051	      0.25906428	     19.22740913	     -2.64936720	     -6.54856098	    -61.41262302	      6.44652586	    -18.30518811	     -1.41337224	      3.69121273	      2.69824505	      9.88762130	     -6.55327219	      0.00000000	      0.00000000	      0.00000000	      0.00000000	      0.00000000	      0.00000000	     -0.31722967	     -9.64989093	     -3.70504713	     -1.72222280
      0.32500000	     -0.78903430	      0.69111540	     -0.27810320	     -0.41886090	      1.02989201	      0.25896248	     19.56812563	     -2.47317381	     -6.67126721	    -60.65733100	      6.91565531	    -18.32101087	     -1.44040881	      3.26012175	      2.50898910	     10.03293887	     -6.36127142	      0.00000000	      0.00000000	      0.00000000	      0.00000000	      0.00000000	      0.00000000	     -0.16029140	     -9.59175008	     -3.51032579	     -1.82762345
      0.32916667	     -0.71583437	      0.34635532	     -0.01818293	     -0.41370491	      1.03052564	      0.25854963	     19.81904691	     -2.16108107	     -6.95372662	    -59.86431734	      7.41688394	    -18.20375209	     -1.61171688	      2.83921054	      2.14340710	     10.30300811	     -6.27808776	      0.00000000	      0.00000000	      0.00000000	      0.00000000	      0.00000000	      0.00000000	     -0.06266366	     -9.73372195	     -3.02145651	     -2.08551590
      0.33333333	     -0.69901581	      0.36005017	      0.04154230	     -0.40892838	      1.03074897	      0.25845865	     20.33144852	     -2.21701213	     -6.99308995	    -59.33241223	      7.48194071	    -18.20397145	     -1.63187943	      2.52340961	      2.16464999	     10.32057723	     -6.26112619	      0.00000000	      0.00000000	      0.00000000	      0.00000000	      0.00000000	      0.00000000	      0.00912751	     -9.87337643	     -3.02565832	     -2.11260787
      0.33750000	     -0.54050290	     -0.02163810	      0.43196818	     -0.40336618	      1.03157736	      0.25796202	     20.30967336	     -1.88638301	     -7.40549104	    -58.25081867	      7.97091068	    -18.09240720	     -2.01756838	      1.95921323	      1.74712969	     10.71776485	     -6.11214977	      0.00000000	      0.00000000	      0.00000000	      0.00000000	      0.00000000	      0.00000000	      0.16484810	    -10.00884719	     -2.50441438	     -2.53681901
      0.34166667	     -0.52257442	      0.00194234	      0.50642433	     -0.39825466	      1.03181129	      0.25791152	     20.71441441	     -1.95335095	     -7.47481982	    -57.55549592	      8.08119172	    -18.10461400	     -2.08717474	      1.58731790	      1.76660525	     10.74998763	     -6.03356315	      0.00000000	      0.00000000	      0.00000000	      0.00000000	      0.00000000	      0.00000000	      0.27999576	    -10.06849148	     -2.53224667	     -2.59739676
      0.34583333	     -0.11225545	     -0.27767983	      0.81975115	     -0.39317392	      1.03279494	      0.25748753	     20.54868367	     -1.75439671	     -7.89478014	    -56.67575965	      9.39301211	    -17.48809599	     -6.18985666	      0.78595864	      1.44723511	     11.06116336	     -5.88801941	      0.00000000	      0.00000000	      0.00000000	      0.00000000	      0.00000000	      0.00000000	      0.37142856	    -10.60415047	     -2.10399178	     -3.06890095
      0.35000000	     -0.11736637	     -0.39546784	      0.94900147	     -0.38802729	      1.03302806	      0.25737606	     20.88544940	     -1.65997660	     -8.02675995	    -55.80758125	      9.60066513	    -17.54789442	     -6.20971630	      0.43759042	      1.30287755	     11.17296142	     -5.79289508	      0.00000000	      0.00000000	      0.00000000	      0.00000000	      0.00000000	      0.00000000	      0.48285930	    -10.63017703	     -1.94591862	     -3.12289090
      0.35416667	     -0.13126087	     -0.35747423	      1.01428973	     -0.38299483	      1.03313966	      0.25740875	     21.27680890	     -1.72284257	     -8.07919917	    -55.00039616	      9.70624456	    -17.58281180	     -6.22230120	      0.11150652	      1.33067638	     11.18879870	     -5.72815440	      0.00000000	      0.00000000	      0.00000000	      0.00000000	      0.00000000	      0.00000000	      0.59574274	    -10.65580876	     -1.99200061	     -3.14774739
      0.35833333	     -0.14924981	     -0.37103038	      1.09300349	     -0.37788401	      1.03324963	      0.25739405	     21.62873841	     -1.73902456	     -8.17381422	    -54.11493312	      9.86078879	    -17.64386225	     -6.23905068	     -0.22681702	      1.29737115	     11.23650680	     -5.63699896	      0.00000000	      0.00000000	      0.00000000	      0.00000000	      0.00000000	      0.00000000	      0.70438293	    -10.65927045	     -1.97881168	     -3.17821190
      0.36250000	      0.15012894	     -0.76002308	      1.46084545	     -0.37275076	      1.03406572	      0.25688556	     21.43360994	     -1.41994048	     -8.63686222	    -52.87238348	      9.96926710	    -17.99791643	     -6.70317044	     -0.90128034	      0.83766178	     11.63142175	     -5.48967843	      0.00000000	      0.00000000	      0.00000000	      0.00000000	      0.00000000	      0.00000000	      0.82080444	    -11.04602900	     -1.40734566	     -3.61688568
      0.36666667	      0.11663129	     -0.70199647	      1.50209494	     -0.36773576	      1.03405085	      0.25696023	     21.80202173	     -1.50574664	     -8.69622384	    -51.96958355	     10.09583766	    -18.02952744	     -6.72432842	     -1.21109173	      0.88091261	     11.62103531	     -5.41861467	      0.00000000	      0.00000000	      0.00000000	      0.00000000	      0.00000000	      0.00000000	      0.92827943	    -11.04613190	     -1.48118833	     -3.61797750
      0.37083333	      0.10406349	     -0.91603952	      1.67425138	     -0.36250574	      1.03421880	      0.25679275	     22.00461498	     -1.31685718	     -8.92322498	    -50.82510008	     10.32571233	    -18.17136243	     -6.86941856	     -1.56872902	      0.61516518	     11.78392021	     -5.27814073	      0.00000000	      0.00000000	      0.00000000	      0.00000000	      0.00000000	      0.00000000	      1.02306282	    -11.04370755	     -1.20019190	     -3.62760391
      0.37500000	      0.07473140	     -0.82935143	      1.71770581	     -0.35757352	      1.03413644	      0.25685681	     22.34553596	     -1.43534123	     -8.98094942	    -49.86930291	     10.40784835	    -18.21195194	     -6.90974436	     -1.87539222	      0.69037508	     11.77741733	     -5.21670321	      0.00000000	      0.00000000	      0.00000000	      0.00000000	      0.00000000	      0.00000000	      1.14975027	    -11.05932921	     -1.30489150	     -3.65304222
      0.37916667	      0.27683204	     -1.08810971	      1.99251201	     -0.35250727	      1.03463527	      0.25656721	     22.23177059	     -1.21434029	     -9.32847178	    -48.53792203	     10.37942743	    -18.62108352	     -7.51347133	     -2.44067570	      0.35816629	     12.05220520	     -5.08672834	      0.00000000	      0.00000000	      0.00000000	      0.00000000	      0.00000000	      0.00000000	      1.25703739	    -11.31885910	     -0.92158274	     -3.94515960
      0.38333333	      0.24646763	     -1.14026372	      2.09046299	     -0.34743323	      1.03459603	      0.25653698	     22.46418330	     -1.17784215	     -9.45529785	    -47.39344662	     10.60662696	    -18.71619489	     -7.70568009	     -2.76895977	      0.26850927	     12.11652112	     -4.97397185	      0.00000000	      0.00000000	      0.00000000	      0.00000000	      0.00000000	      0.00000000	      1.37037310	    -11.30761046	     -0.84439140	     -3.92077219
      0.38750000	      0.19758200	     -1.02604265	      2.11887851	     -0.34252006	      1.03438380	      0.25670102	     22.78170310	     -1.31279399	     -9.51708629	    -46.35392628	     10.70298833	    -18.74831667	     -7.74953871	     -3.05834388	      0.36471110	     12.10415624	     -4.90943617	      0.00000000	      0.00000000	      0.00000000	      0.00000000	      0.00000000	      0.00000000	      1.48720947	    -11.29730930	     -0.99406265	     -3.93668551
      0.39166667	      0.13909920	     -0.98181195	      2.19837944	     -0.33755206	      1.03419421	      0.25676083	     23.04182411	     -1.37308947	     -9.60517446	    -45.19739786	     10.82662175	    -18.81323206	     -7.82024816	     -3.34133536	      0.38084878	     12.15507159	     -4.82503423	      0.00000000	      0.00000000	      0.00000000	      0.00000000	      0.00000000	      0.00000000	      1.58600711	    -11.26081565	     -1.05169446	     -3.94446831
      0.39583333	      0.07660960	     -0.93361197	      2.27284479	     -0.33258361	      1.03395978	      0.25682471	     23.29599697	     -1.44021789	     -9.70768835	    -44.02696678	     10.93545050	    -18.88016545	     -7.89067360	     -3.61716224	      0.40028529	     12.19918230	     -4.74706631	      0.00000000	      0.00000000	      0.00000000	      0.00000000	      0.00000000	      0.00000000	      1.69680829	    -11.22223411	     -1.10624258	     -3.95633745
      0.40000000	      0.18523871	     -1.21878752	      2.56537007	     -0.32753663	      1.03421965	      0.25654744	     23.15941923	     -1.16145144	    -10.02414571	    -42.45942924	     10.85685941	    -19.42762756	     -8.73526366	     -4.06955428	      0.02548647	     12.50739747	     -4.62462326	      0.00000000	      0.00000000	      0.00000000	      0.00000000	      0.00000000	      0.00000000	      1.81505084	    -11.37081499	     -0.68985314	     -4.24653840
      0.40416667	      0.10384090	     -1.08581910	      2.60226598	     -0.32262628	      1.03383733	      0.25668501	     23.43165847	     -1.30664909	    -10.07571201	    -41.28928872	     10.98156399	    -19.42469954	     -8.77856329	     -4.32424761	      0.14087280	     12.49483759	     -4.55864433	      0.00000000	      0.00000000	      0.00000000	      0.00000000	      0.00000000	      0.00000000	      1.92871847	    -11.32462730	     -0.85545614	     -4.23345890
      0.40833333	      0.01235562	     -0.98077746	      2.65534931	     -0.31768626	      1.03345356	      0.25682417	     23.67643406	     -1.41552888	    -10.14153060	    -40.05150053	     11.10139083	    -19.42889085	     -8.82806010	     -4.56746576	      0.22202107	     12.52520357	     -4.48979287	      0.00000000	      0.00000000	      0.00000000	      0.00000000	      0.00000000	      0.00000000	      2.03612236	    -11.25973606	     -0.98452640	     -4.22071574
      0.41250000	     -0.11350086	     -1.14942420	      2.86406871	     -0.31253808	      1.03319077	      0.25666333	     23.78574499	     -1.26310975	    -10.37454672	    -38.50681005	     11.11607008	    -19.54901657	     -9.11131408	     -4.77184091	     -0.00950469	     12.73767751	     -4.39566371	      0.00000000	      0.00000000	      0.00000000	      0.00000000	      0.00000000	      0.00000000	      2.15625781	    -11.10659547	     -0.75725265	     -4.23975260
      0.41666667	     -0.20018186	     -0.96820940	      2.89045912	     -0.30761521	      1.03267289	      0.25685770	     24.03549547	     -1.45639261	    -10.43925245	    -37.31319113	     11.22017411	    -19.56175615	     -9.14953367	     -5.02830339	      0.15464760	     12.70664463	     -4.32266327	      0.00000000	      0.00000000	      0.00000000	      0.00000000	      0.00000000	      0.00000000	      2.28347887	    -11.06232269	     -0.97931731	     -4.26222415
